<svg xmlns="http://www.w3.org/2000/svg" viewBox="0 0 64 64" fill="none" role="img" aria-label="DiffDuck duck">
  <path d="M11 41c-3-2-5-5-6-9 6 2 11 2 17 0l8-5c-1-3-1-6 0-9 2-6 8-9 14-7 6 1 10 7 9 13l-3 9c-1 3 0 5 1 7 3 7-1 14-9 16-13 4-28 0-31-9-1-2-1-4 0-6Z" fill="#E6BD50" stroke="#364B2C" stroke-width="2.5" stroke-linejoin="round"/>
  <path d="m51 24 9 3-10 5" fill="#D97F35" stroke="#364B2C" stroke-width="2.5" stroke-linejoin="round"/>
  <path d="M23 39c7-6 15-6 19-2-3 9-13 13-19 6" fill="#F3D67F"/>
  <path d="M23 39c7-6 15-6 19-2-3 9-13 13-19 6" stroke="#364B2C" stroke-width="2.5" stroke-linecap="round" stroke-linejoin="round"/>
  <circle cx="44" cy="21" r="2" fill="#273720"/>
  <path d="M17 59h27" stroke="#B4D198" stroke-width="2.5" stroke-linecap="round"/>
</svg>
